<svg id="visual" viewBox="0 0 900 600" width="900" height="600" xmlns="http://www.w3.org/2000/svg" xmlns:xlink="http://www.w3.org/1999/xlink" version="1.1"><g stroke-width="1" stroke-linejoin="bevel"><path d="M465 285L492.3 249L445.7 227Z" fill="#f7770f" stroke="#f7770f"></path><path d="M445.7 227L414 263L465 285Z" fill="#fcaf3c" stroke="#fcaf3c"></path><path d="M465 285L513.3 246L492.3 249Z" fill="#f98e20" stroke="#f98e20"></path><path d="M492.3 249L511.3 228L445.7 227Z" fill="#fa9a29" stroke="#fa9a29"></path><path d="M513.3 246L511.3 228L492.3 249Z" fill="#f98e20" stroke="#f98e20"></path><path d="M418 165L405.7 198L445.7 227Z" fill="#fcaa37" stroke="#fcaa37"></path><path d="M445.7 227L405.7 198L414 263Z" fill="#f7770f" stroke="#f7770f"></path><path d="M405.7 198L383.4 283L414 263Z" fill="#fa9a29" stroke="#fa9a29"></path><path d="M414 263L383.4 283L465 285Z" fill="#fa9a29" stroke="#fa9a29"></path><path d="M506.6 131L418 165L445.7 227Z" fill="#fa9a29" stroke="#fa9a29"></path><path d="M318.1 252L343.4 291L383.4 283Z" fill="#f7770f" stroke="#f7770f"></path><path d="M397 406L504 372L465 285Z" fill="#fcaa37" stroke="#fcaa37"></path><path d="M318.1 252L383.4 283L405.7 198Z" fill="#f7770f" stroke="#f7770f"></path><path d="M562.3 329L513.3 246L465 285Z" fill="#fa9424" stroke="#fa9424"></path><path d="M562.3 329L582.9 284L513.3 246Z" fill="#fcaa37" stroke="#fcaa37"></path><path d="M513.3 246L606.6 211L511.3 228Z" fill="#fa9424" stroke="#fa9424"></path><path d="M397 406L465 285L383.4 283Z" fill="#f88317" stroke="#f88317"></path><path d="M504 372L562.3 329L465 285Z" fill="#f87d13" stroke="#f87d13"></path><path d="M606.6 211L506.6 131L511.3 228Z" fill="#fba432" stroke="#fba432"></path><path d="M511.3 228L506.6 131L445.7 227Z" fill="#fa9a29" stroke="#fa9a29"></path><path d="M562.3 329L587.9 303L582.9 284Z" fill="#fcaa37" stroke="#fcaa37"></path><path d="M343.4 291L334.7 311L383.4 283Z" fill="#f9891b" stroke="#f9891b"></path><path d="M305.1 195L318.1 252L405.7 198Z" fill="#fba432" stroke="#fba432"></path><path d="M343.4 291L318.1 252L334.7 311Z" fill="#fcaf3c" stroke="#fcaf3c"></path><path d="M436 105L418.7 116L418 165Z" fill="#fba432" stroke="#fba432"></path><path d="M339.4 135L305.1 195L405.7 198Z" fill="#fcaa37" stroke="#fcaa37"></path><path d="M506.6 131L436 105L418 165Z" fill="#f87d13" stroke="#f87d13"></path><path d="M655.1 260L606.6 211L582.9 284Z" fill="#fba432" stroke="#fba432"></path><path d="M582.9 284L606.6 211L513.3 246Z" fill="#f87d13" stroke="#f87d13"></path><path d="M607.6 348L614.6 302L587.9 303Z" fill="#fa9424" stroke="#fa9424"></path><path d="M587.9 303L614.6 302L582.9 284Z" fill="#f9891b" stroke="#f9891b"></path><path d="M607.6 348L587.9 303L562.3 329Z" fill="#fcaf3c" stroke="#fcaf3c"></path><path d="M397 406L499 414L504 372Z" fill="#fa9a29" stroke="#fa9a29"></path><path d="M609.6 403L607.6 348L562.3 329Z" fill="#fa9424" stroke="#fa9424"></path><path d="M334.7 311L397 406L383.4 283Z" fill="#f87d13" stroke="#f87d13"></path><path d="M339.4 135L405.7 198L418 165Z" fill="#fa9a29" stroke="#fa9a29"></path><path d="M374.7 71L339.4 135L418.7 116Z" fill="#fcaa37" stroke="#fcaa37"></path><path d="M418.7 116L339.4 135L418 165Z" fill="#fa9a29" stroke="#fa9a29"></path><path d="M609.6 403L562.3 329L504 372Z" fill="#f9891b" stroke="#f9891b"></path><path d="M555.6 106L469.3 80L506.6 131Z" fill="#fa9424" stroke="#fa9424"></path><path d="M506.6 131L469.3 80L436 105Z" fill="#f7770f" stroke="#f7770f"></path><path d="M436 105L415 75L418.7 116Z" fill="#fa9424" stroke="#fa9424"></path><path d="M606.6 211L555.6 106L506.6 131Z" fill="#f88317" stroke="#f88317"></path><path d="M469.3 80L415 75L436 105Z" fill="#fb9f2d" stroke="#fb9f2d"></path><path d="M631.1 352L655.1 260L614.6 302Z" fill="#fba432" stroke="#fba432"></path><path d="M614.6 302L655.1 260L582.9 284Z" fill="#f87d13" stroke="#f87d13"></path><path d="M606.6 211L641.1 167L555.6 106Z" fill="#f98e20" stroke="#f98e20"></path><path d="M632.6 379L631.1 352L607.6 348Z" fill="#f88317" stroke="#f88317"></path><path d="M607.6 348L631.1 352L614.6 302Z" fill="#f87d13" stroke="#f87d13"></path><path d="M663.9 234L641.1 167L606.6 211Z" fill="#fb9f2d" stroke="#fb9f2d"></path><path d="M391.4 0L374.7 71L415 75Z" fill="#f98e20" stroke="#f98e20"></path><path d="M415 75L374.7 71L418.7 116Z" fill="#f98e20" stroke="#f98e20"></path><path d="M339.4 135L255.4 115L305.1 195Z" fill="#fb9f2d" stroke="#fb9f2d"></path><path d="M694.9 219L663.9 234L655.1 260Z" fill="#fba432" stroke="#fba432"></path><path d="M655.1 260L663.9 234L606.6 211Z" fill="#f9891b" stroke="#f9891b"></path><path d="M334.7 311L357.4 431L397 406Z" fill="#fba432" stroke="#fba432"></path><path d="M397 406L453.3 477L499 414Z" fill="#f9891b" stroke="#f9891b"></path><path d="M280.4 375L357.4 431L334.7 311Z" fill="#f9891b" stroke="#f9891b"></path><path d="M280.4 375L334.7 311L229.1 263Z" fill="#fa9a29" stroke="#fa9a29"></path><path d="M374.7 71L324.7 95L339.4 135Z" fill="#fcaf3c" stroke="#fcaf3c"></path><path d="M583.3 444L504 372L499 414Z" fill="#fb9f2d" stroke="#fb9f2d"></path><path d="M583.3 444L609.6 403L504 372Z" fill="#f7770f" stroke="#f7770f"></path><path d="M609.6 403L632.6 379L607.6 348Z" fill="#fa9424" stroke="#fa9424"></path><path d="M765.7 245L694.9 219L655.1 260Z" fill="#f87d13" stroke="#f87d13"></path><path d="M229.1 263L334.7 311L318.1 252Z" fill="#f9891b" stroke="#f9891b"></path><path d="M239.9 139L248.1 201L305.1 195Z" fill="#fa9a29" stroke="#fa9a29"></path><path d="M305.1 195L248.1 201L318.1 252Z" fill="#fcaf3c" stroke="#fcaf3c"></path><path d="M555.6 106L467.3 31L469.3 80Z" fill="#f88317" stroke="#f88317"></path><path d="M469.3 80L467.3 31L415 75Z" fill="#fcaa37" stroke="#fcaa37"></path><path d="M468.3 0L467.3 31L602.9 0Z" fill="#f98e20" stroke="#f98e20"></path><path d="M357.4 431L453.3 477L397 406Z" fill="#f7770f" stroke="#f7770f"></path><path d="M492 484L583.3 444L499 414Z" fill="#fcaa37" stroke="#fcaa37"></path><path d="M609.6 403L613.6 447L632.6 379Z" fill="#f7770f" stroke="#f7770f"></path><path d="M453.3 477L492 484L499 414Z" fill="#f88317" stroke="#f88317"></path><path d="M248.1 201L229.1 263L318.1 252Z" fill="#f98e20" stroke="#f98e20"></path><path d="M741.1 194L694.9 219L765.7 245Z" fill="#fcaa37" stroke="#fcaa37"></path><path d="M663.9 234L694.9 219L641.1 167Z" fill="#f98e20" stroke="#f98e20"></path><path d="M612.6 477L613.6 447L583.3 444Z" fill="#f98e20" stroke="#f98e20"></path><path d="M583.3 444L613.6 447L609.6 403Z" fill="#f98e20" stroke="#f98e20"></path><path d="M767.7 381L655.1 260L631.1 352Z" fill="#fa9424" stroke="#fa9424"></path><path d="M223.1 411L281.4 424L280.4 375Z" fill="#f88317" stroke="#f88317"></path><path d="M280.4 375L281.4 424L357.4 431Z" fill="#f7770f" stroke="#f7770f"></path><path d="M357.4 431L330.7 488L453.3 477Z" fill="#fcaf3c" stroke="#fcaf3c"></path><path d="M278.1 70L255.4 115L324.7 95Z" fill="#f9891b" stroke="#f9891b"></path><path d="M324.7 95L255.4 115L339.4 135Z" fill="#f98e20" stroke="#f98e20"></path><path d="M248.1 201L175.6 228L229.1 263Z" fill="#fa9424" stroke="#fa9424"></path><path d="M278.1 70L324.7 95L374.7 71Z" fill="#f88317" stroke="#f88317"></path><path d="M255.4 115L239.9 139L305.1 195Z" fill="#fba432" stroke="#fba432"></path><path d="M602.9 0L467.3 31L555.6 106Z" fill="#f88317" stroke="#f88317"></path><path d="M467.3 31L413.7 0L415 75Z" fill="#fba432" stroke="#fba432"></path><path d="M191.9 101L225.9 158L239.9 139Z" fill="#f88317" stroke="#f88317"></path><path d="M239.9 139L225.9 158L248.1 201Z" fill="#f98e20" stroke="#f98e20"></path><path d="M468.3 0L413.7 0L467.3 31Z" fill="#fcaf3c" stroke="#fcaf3c"></path><path d="M694.9 219L707.9 173L641.1 167Z" fill="#f87d13" stroke="#f87d13"></path><path d="M603.6 0L602.9 0L555.6 106Z" fill="#f9891b" stroke="#f9891b"></path><path d="M391.4 0L278.1 70L374.7 71Z" fill="#f9891b" stroke="#f9891b"></path><path d="M255.4 115L191.9 101L239.9 139Z" fill="#fb9f2d" stroke="#fb9f2d"></path><path d="M413.7 0L406 0L415 75Z" fill="#fb9f2d" stroke="#fb9f2d"></path><path d="M281.4 424L321.7 474L357.4 431Z" fill="#f98e20" stroke="#f98e20"></path><path d="M453.3 477L487.3 544L492 484Z" fill="#f87d13" stroke="#f87d13"></path><path d="M278.1 70L255.4 90L255.4 115Z" fill="#f9891b" stroke="#f9891b"></path><path d="M406 0L391.4 0L415 75Z" fill="#fa9a29" stroke="#fa9a29"></path><path d="M234.1 548L330.7 488L321.7 474Z" fill="#f98e20" stroke="#f98e20"></path><path d="M321.7 474L330.7 488L357.4 431Z" fill="#fba432" stroke="#fba432"></path><path d="M492 484L612.6 477L583.3 444Z" fill="#fa9a29" stroke="#fa9a29"></path><path d="M613.6 447L711.1 417L632.6 379Z" fill="#f98e20" stroke="#f98e20"></path><path d="M183.9 335L204.1 354L229.1 263Z" fill="#f87d13" stroke="#f87d13"></path><path d="M229.1 263L204.1 354L280.4 375Z" fill="#f9891b" stroke="#f9891b"></path><path d="M281.4 424L215.9 473L321.7 474Z" fill="#fb9f2d" stroke="#fb9f2d"></path><path d="M204.1 354L223.1 411L280.4 375Z" fill="#fcaf3c" stroke="#fcaf3c"></path><path d="M694.9 219L741.1 194L707.9 173Z" fill="#fcaa37" stroke="#fcaa37"></path><path d="M603.6 0L555.6 106L665.1 0Z" fill="#f88317" stroke="#f88317"></path><path d="M717.4 411L631.1 352L632.6 379Z" fill="#f98e20" stroke="#f98e20"></path><path d="M191.9 101L175.6 228L225.9 158Z" fill="#f7770f" stroke="#f7770f"></path><path d="M225.9 158L175.6 228L248.1 201Z" fill="#fa9a29" stroke="#fa9a29"></path><path d="M171.6 309L183.9 335L229.1 263Z" fill="#fcaf3c" stroke="#fcaf3c"></path><path d="M204.1 354L190.9 372L223.1 411Z" fill="#fb9f2d" stroke="#fb9f2d"></path><path d="M555.6 106L641.1 167L665.1 0Z" fill="#fb9f2d" stroke="#fb9f2d"></path><path d="M729.4 112L641.1 167L707.9 173Z" fill="#fba432" stroke="#fba432"></path><path d="M424.7 565L487.3 544L453.3 477Z" fill="#fba432" stroke="#fba432"></path><path d="M492 484L487.3 544L612.6 477Z" fill="#fba432" stroke="#fba432"></path><path d="M145.6 262L171.6 309L229.1 263Z" fill="#f88317" stroke="#f88317"></path><path d="M155.9 353L190.9 372L183.9 335Z" fill="#fcaa37" stroke="#fcaa37"></path><path d="M183.9 335L190.9 372L204.1 354Z" fill="#f9891b" stroke="#f9891b"></path><path d="M686.9 486L711.1 417L613.6 447Z" fill="#fcaf3c" stroke="#fcaf3c"></path><path d="M711.1 417L717.4 411L632.6 379Z" fill="#fb9f2d" stroke="#fb9f2d"></path><path d="M774.1 165L729.4 112L707.9 173Z" fill="#f9891b" stroke="#f9891b"></path><path d="M767.7 381L765.7 245L655.1 260Z" fill="#fb9f2d" stroke="#fb9f2d"></path><path d="M741.1 194L774.1 165L707.9 173Z" fill="#fa9a29" stroke="#fa9a29"></path><path d="M194.6 63L191.9 101L255.4 90Z" fill="#f98e20" stroke="#f98e20"></path><path d="M255.4 90L191.9 101L255.4 115Z" fill="#f9891b" stroke="#f9891b"></path><path d="M194.6 63L255.4 90L278.1 70Z" fill="#f88317" stroke="#f88317"></path><path d="M376.4 567L453.3 477L330.7 488Z" fill="#f9891b" stroke="#f9891b"></path><path d="M376.4 567L424.7 565L453.3 477Z" fill="#fa9424" stroke="#fa9424"></path><path d="M650.9 586L665.9 493L612.6 477Z" fill="#f88317" stroke="#f88317"></path><path d="M612.6 477L665.9 493L613.6 447Z" fill="#f88317" stroke="#f88317"></path><path d="M782.1 500L782.7 402L717.4 411Z" fill="#f7770f" stroke="#f7770f"></path><path d="M569.3 600L612.6 477L487.3 544Z" fill="#f88317" stroke="#f88317"></path><path d="M765.7 245L773.4 205L741.1 194Z" fill="#fa9a29" stroke="#fa9a29"></path><path d="M175.6 228L145.6 262L229.1 263Z" fill="#fcaa37" stroke="#fcaa37"></path><path d="M171.6 309L155.9 353L183.9 335Z" fill="#fb9f2d" stroke="#fb9f2d"></path><path d="M125.9 261L145.6 262L175.6 228Z" fill="#f9891b" stroke="#f9891b"></path><path d="M125.9 261L155.9 353L171.6 309Z" fill="#f88317" stroke="#f88317"></path><path d="M183.6 479L215.9 473L223.1 411Z" fill="#f88317" stroke="#f88317"></path><path d="M665.9 493L686.9 486L613.6 447Z" fill="#fb9f2d" stroke="#fb9f2d"></path><path d="M391.4 0L259.9 0L278.1 70Z" fill="#fa9a29" stroke="#fa9a29"></path><path d="M369.7 600L376.4 567L368.4 600Z" fill="#f7770f" stroke="#f7770f"></path><path d="M215.9 473L281.4 424L223.1 411Z" fill="#fcaf3c" stroke="#fcaf3c"></path><path d="M773.4 205L774.1 165L741.1 194Z" fill="#f9891b" stroke="#f9891b"></path><path d="M259.9 0L258.1 0L278.1 70Z" fill="#f88317" stroke="#f88317"></path><path d="M729.4 112L665.1 0L641.1 167Z" fill="#f9891b" stroke="#f9891b"></path><path d="M699.9 9L665.1 0L729.4 112Z" fill="#fcaf3c" stroke="#fcaf3c"></path><path d="M258.1 0L194.6 63L278.1 70Z" fill="#f9891b" stroke="#f9891b"></path><path d="M102.6 251L125.9 261L175.6 228Z" fill="#fa9424" stroke="#fa9424"></path><path d="M183.6 479L223.1 411L140.6 456Z" fill="#f87d13" stroke="#f87d13"></path><path d="M782.7 402L767.7 381L717.4 411Z" fill="#f98e20" stroke="#f98e20"></path><path d="M717.4 411L767.7 381L631.1 352Z" fill="#fa9424" stroke="#fa9424"></path><path d="M765.7 245L808.4 249L773.4 205Z" fill="#fba432" stroke="#fba432"></path><path d="M145.6 262L125.9 261L171.6 309Z" fill="#f9891b" stroke="#f9891b"></path><path d="M102.6 251L175.6 228L77.3 190Z" fill="#f9891b" stroke="#f9891b"></path><path d="M774.1 165L763.4 97L729.4 112Z" fill="#fa9a29" stroke="#fa9a29"></path><path d="M728.1 23L699.9 9L729.4 112Z" fill="#fa9a29" stroke="#fa9a29"></path><path d="M822.4 332L808.4 249L765.7 245Z" fill="#f87d13" stroke="#f87d13"></path><path d="M773.4 205L832.4 186L774.1 165Z" fill="#fa9424" stroke="#fa9424"></path><path d="M774.1 165L832.4 186L763.4 97Z" fill="#f9891b" stroke="#f9891b"></path><path d="M369.7 600L434 600L424.7 565Z" fill="#fa9424" stroke="#fa9424"></path><path d="M424.7 565L434 600L487.3 544Z" fill="#fcaa37" stroke="#fcaa37"></path><path d="M665.9 493L714.4 573L686.9 486Z" fill="#fb9f2d" stroke="#fb9f2d"></path><path d="M763.4 97L728.1 23L729.4 112Z" fill="#fb9f2d" stroke="#fb9f2d"></path><path d="M782.1 500L717.4 411L711.1 417Z" fill="#fcaa37" stroke="#fcaa37"></path><path d="M767.7 381L822.4 332L765.7 245Z" fill="#f87d13" stroke="#f87d13"></path><path d="M137.3 410L223.1 411L190.9 372Z" fill="#f87d13" stroke="#f87d13"></path><path d="M368.4 600L376.4 567L264.9 600Z" fill="#fcaa37" stroke="#fcaa37"></path><path d="M376.4 567L369.7 600L424.7 565Z" fill="#fba432" stroke="#fba432"></path><path d="M137.3 410L190.9 372L155.9 353Z" fill="#f87d13" stroke="#f87d13"></path><path d="M376.4 567L330.7 488L264.9 600Z" fill="#f9891b" stroke="#f9891b"></path><path d="M234.1 548L321.7 474L215.9 473Z" fill="#f9891b" stroke="#f9891b"></path><path d="M97.3 119L175.6 228L191.9 101Z" fill="#f87d13" stroke="#f87d13"></path><path d="M125.9 261L42.3 349L155.9 353Z" fill="#fb9f2d" stroke="#fb9f2d"></path><path d="M42.3 349L137.3 410L155.9 353Z" fill="#fba432" stroke="#fba432"></path><path d="M434 600L569.3 600L487.3 544Z" fill="#f7770f" stroke="#f7770f"></path><path d="M900 456L815.4 379L782.7 402Z" fill="#fa9a29" stroke="#fa9a29"></path><path d="M815.4 379L822.4 332L767.7 381Z" fill="#fa9a29" stroke="#fa9a29"></path><path d="M178.9 536L234.1 548L215.9 473Z" fill="#f9891b" stroke="#f9891b"></path><path d="M782.1 500L711.1 417L686.9 486Z" fill="#f7770f" stroke="#f7770f"></path><path d="M782.7 402L815.4 379L767.7 381Z" fill="#f9891b" stroke="#f9891b"></path><path d="M808.4 249L832.4 186L773.4 205Z" fill="#f98e20" stroke="#f98e20"></path><path d="M763.4 97L818.4 0L728.1 23Z" fill="#f87d13" stroke="#f87d13"></path><path d="M900 270L832.4 186L808.4 249Z" fill="#f9891b" stroke="#f9891b"></path><path d="M137.3 410L140.6 456L223.1 411Z" fill="#fa9424" stroke="#fa9424"></path><path d="M183.6 479L178.9 536L215.9 473Z" fill="#fa9424" stroke="#fa9424"></path><path d="M0 481L140.6 456L137.3 410Z" fill="#f9891b" stroke="#f9891b"></path><path d="M569.3 600L619.6 600L612.6 477Z" fill="#fba432" stroke="#fba432"></path><path d="M619.6 600L650.9 586L612.6 477Z" fill="#fba432" stroke="#fba432"></path><path d="M619.9 600L650.9 586L619.6 600Z" fill="#f87d13" stroke="#f87d13"></path><path d="M194.6 63L97.3 119L191.9 101Z" fill="#fcaf3c" stroke="#fcaf3c"></path><path d="M95.6 28L97.3 119L194.6 63Z" fill="#fa9a29" stroke="#fa9a29"></path><path d="M97.3 119L77.3 190L175.6 228Z" fill="#f7770f" stroke="#f7770f"></path><path d="M102.6 251L42.3 349L125.9 261Z" fill="#fba432" stroke="#fba432"></path><path d="M234.1 548L264.9 600L330.7 488Z" fill="#f88317" stroke="#f88317"></path><path d="M203.1 569L264.9 600L234.1 548Z" fill="#fcaf3c" stroke="#fcaf3c"></path><path d="M140.6 456L178.9 536L183.6 479Z" fill="#f9891b" stroke="#f9891b"></path><path d="M619.9 600L664.1 600L650.9 586Z" fill="#fa9a29" stroke="#fa9a29"></path><path d="M650.9 586L714.4 573L665.9 493Z" fill="#fb9f2d" stroke="#fb9f2d"></path><path d="M775.1 516L782.1 500L686.9 486Z" fill="#f9891b" stroke="#f9891b"></path><path d="M664.1 600L714.4 573L650.9 586Z" fill="#fcaa37" stroke="#fcaa37"></path><path d="M178.9 536L203.1 569L234.1 548Z" fill="#f98e20" stroke="#f98e20"></path><path d="M714.4 573L775.1 516L686.9 486Z" fill="#f88317" stroke="#f88317"></path><path d="M900 347L874.7 355L900 366Z" fill="#fb9f2d" stroke="#fb9f2d"></path><path d="M900 366L874.7 355L900 456Z" fill="#fcaf3c" stroke="#fcaf3c"></path><path d="M815.4 379L874.7 355L822.4 332Z" fill="#f88317" stroke="#f88317"></path><path d="M822.4 332L900 270L808.4 249Z" fill="#fb9f2d" stroke="#fb9f2d"></path><path d="M7.3 257L42.3 349L102.6 251Z" fill="#f98e20" stroke="#f98e20"></path><path d="M176.6 600L203.1 569L178.9 536Z" fill="#fba432" stroke="#fba432"></path><path d="M258.1 0L95.6 28L194.6 63Z" fill="#fba432" stroke="#fba432"></path><path d="M0 227L7.3 257L77.3 190Z" fill="#fba432" stroke="#fba432"></path><path d="M77.3 190L7.3 257L102.6 251Z" fill="#fa9a29" stroke="#fa9a29"></path><path d="M900 128L763.4 97L832.4 186Z" fill="#f7770f" stroke="#f7770f"></path><path d="M895.7 66L818.4 0L763.4 97Z" fill="#fcaa37" stroke="#fcaa37"></path><path d="M728.1 23L818.4 0L699.9 9Z" fill="#f98e20" stroke="#f98e20"></path><path d="M699.9 9L818.4 0L665.1 0Z" fill="#f98e20" stroke="#f98e20"></path><path d="M743.4 600L779.7 556L714.4 573Z" fill="#fcaf3c" stroke="#fcaf3c"></path><path d="M714.4 573L779.7 556L775.1 516Z" fill="#fcaf3c" stroke="#fcaf3c"></path><path d="M775.1 516L791.7 551L782.1 500Z" fill="#fba432" stroke="#fba432"></path><path d="M900 311L900 270L822.4 332Z" fill="#f9891b" stroke="#f9891b"></path><path d="M900 270L892.7 165L832.4 186Z" fill="#fcaf3c" stroke="#fcaf3c"></path><path d="M176.6 600L178.9 536L97.3 607Z" fill="#fba432" stroke="#fba432"></path><path d="M176.6 600L187.1 600L203.1 569Z" fill="#f9891b" stroke="#f9891b"></path><path d="M203.1 569L187.1 600L264.9 600Z" fill="#fa9424" stroke="#fa9424"></path><path d="M874.7 355L900 311L822.4 332Z" fill="#fa9a29" stroke="#fa9a29"></path><path d="M900 347L900 311L874.7 355Z" fill="#f98e20" stroke="#f98e20"></path><path d="M779.7 556L791.7 551L775.1 516Z" fill="#f98e20" stroke="#f98e20"></path><path d="M664.1 600L743.4 600L714.4 573Z" fill="#fb9f2d" stroke="#fb9f2d"></path><path d="M779.7 556L883.7 600L791.7 551Z" fill="#f7770f" stroke="#f7770f"></path><path d="M61.6 560L178.9 536L140.6 456Z" fill="#fa9a29" stroke="#fa9a29"></path><path d="M874.7 355L815.4 379L900 456Z" fill="#fba432" stroke="#fba432"></path><path d="M900 456L782.7 402L782.1 500Z" fill="#fa9a29" stroke="#fa9a29"></path><path d="M0 172L77.3 190L97.3 119Z" fill="#fcaa37" stroke="#fcaa37"></path><path d="M900 270L900 128L892.7 165Z" fill="#fb9f2d" stroke="#fb9f2d"></path><path d="M892.7 165L900 128L832.4 186Z" fill="#f88317" stroke="#f88317"></path><path d="M95.6 28L43.3 67L97.3 119Z" fill="#f87d13" stroke="#f87d13"></path><path d="M0 172L0 227L77.3 190Z" fill="#fb9f2d" stroke="#fb9f2d"></path><path d="M95.6 28L72.6 0L43.3 67Z" fill="#fcaf3c" stroke="#fcaf3c"></path><path d="M258.1 0L72.6 0L95.6 28Z" fill="#fcaa37" stroke="#fcaa37"></path><path d="M0 227L0.3 318L7.3 257Z" fill="#f98e20" stroke="#f98e20"></path><path d="M7.3 257L0.3 318L42.3 349Z" fill="#fa9a29" stroke="#fa9a29"></path><path d="M42.3 349L0 385L137.3 410Z" fill="#fa9a29" stroke="#fa9a29"></path><path d="M0 108L0 172L97.3 119Z" fill="#fcaa37" stroke="#fcaa37"></path><path d="M900 128L895.7 66L763.4 97Z" fill="#fcaa37" stroke="#fcaa37"></path><path d="M-4.7 363L42.3 349L0.3 318Z" fill="#f98e20" stroke="#f98e20"></path><path d="M-4.7 363L0 373L42.3 349Z" fill="#fcaa37" stroke="#fcaa37"></path><path d="M0 227L-4.7 363L0.3 318Z" fill="#fa9424" stroke="#fa9424"></path><path d="M0 172L-4.7 363L0 227Z" fill="#fba432" stroke="#fba432"></path><path d="M-4.7 363L0 385L0 373Z" fill="#fcaa37" stroke="#fcaa37"></path><path d="M0 373L0 385L42.3 349Z" fill="#fcaa37" stroke="#fcaa37"></path><path d="M900 546L900 456L782.1 500Z" fill="#fcaf3c" stroke="#fcaf3c"></path><path d="M900 546L782.1 500L791.7 551Z" fill="#fb9f2d" stroke="#fb9f2d"></path><path d="M43.3 67L0 108L97.3 119Z" fill="#fb9f2d" stroke="#fb9f2d"></path><path d="M0 172L0 108L-4.7 363Z" fill="#fa9a29" stroke="#fa9a29"></path><path d="M0 70L0 108L43.3 67Z" fill="#f88317" stroke="#f88317"></path><path d="M900 128L900 47L895.7 66Z" fill="#fcaa37" stroke="#fcaa37"></path><path d="M895.7 66L900 47L818.4 0Z" fill="#f9891b" stroke="#f9891b"></path><path d="M900 47L889.7 9L818.4 0Z" fill="#f98e20" stroke="#f98e20"></path><path d="M889.7 9L885.7 0L818.4 0Z" fill="#f98e20" stroke="#f98e20"></path><path d="M0 55L0 70L43.3 67Z" fill="#fcaa37" stroke="#fcaa37"></path><path d="M0 108L0 70L-4.7 363Z" fill="#fba432" stroke="#fba432"></path><path d="M19.3 0L0 55L43.3 67Z" fill="#f9891b" stroke="#f9891b"></path><path d="M0 70L0 55L-4.7 363Z" fill="#fcaa37" stroke="#fcaa37"></path><path d="M0 481L61.6 560L140.6 456Z" fill="#f87d13" stroke="#f87d13"></path><path d="M900 47L900 0L889.7 9Z" fill="#f98e20" stroke="#f98e20"></path><path d="M889.7 9L900 0L885.7 0Z" fill="#fa9a29" stroke="#fa9a29"></path><path d="M61.6 560L97.3 607L178.9 536Z" fill="#fb9f2d" stroke="#fb9f2d"></path><path d="M176.6 600L97.3 607L187.1 600Z" fill="#fcaa37" stroke="#fcaa37"></path><path d="M187.1 600L97.3 607L264.9 600Z" fill="#f9891b" stroke="#f9891b"></path><path d="M264.9 600L97.3 607L368.4 600Z" fill="#fa9a29" stroke="#fa9a29"></path><path d="M368.4 600L0 614L369.7 600Z" fill="#fb9f2d" stroke="#fb9f2d"></path><path d="M369.7 600L0 614L434 600Z" fill="#fcaf3c" stroke="#fcaf3c"></path><path d="M434 600L0 614L569.3 600Z" fill="#f87d13" stroke="#f87d13"></path><path d="M569.3 600L0 614L619.6 600Z" fill="#f7770f" stroke="#f7770f"></path><path d="M619.6 600L0 614L619.9 600Z" fill="#f87d13" stroke="#f87d13"></path><path d="M619.9 600L0 614L664.1 600Z" fill="#f87d13" stroke="#f87d13"></path><path d="M664.1 600L0 614L743.4 600Z" fill="#fcaf3c" stroke="#fcaf3c"></path><path d="M72.6 0L19.3 0L43.3 67Z" fill="#fcaa37" stroke="#fcaa37"></path><path d="M900 0L900 -10L885.7 0Z" fill="#f88317" stroke="#f88317"></path><path d="M885.7 0L900 -10L818.4 0Z" fill="#fa9a29" stroke="#fa9a29"></path><path d="M818.4 0L900 -10L665.1 0Z" fill="#fba432" stroke="#fba432"></path><path d="M665.1 0L900 -10L603.6 0Z" fill="#fb9f2d" stroke="#fb9f2d"></path><path d="M603.6 0L900 -10L602.9 0Z" fill="#f87d13" stroke="#f87d13"></path><path d="M602.9 0L900 -10L468.3 0Z" fill="#f88317" stroke="#f88317"></path><path d="M468.3 0L900 -10L413.7 0Z" fill="#f98e20" stroke="#f98e20"></path><path d="M413.7 0L900 -10L406 0Z" fill="#f9891b" stroke="#f9891b"></path><path d="M406 0L900 -10L391.4 0Z" fill="#fb9f2d" stroke="#fb9f2d"></path><path d="M391.4 0L900 -10L259.9 0Z" fill="#fa9424" stroke="#fa9424"></path><path d="M259.9 0L900 -10L258.1 0Z" fill="#f7770f" stroke="#f7770f"></path><path d="M258.1 0L900 -10L72.6 0Z" fill="#fcaa37" stroke="#fcaa37"></path><path d="M72.6 0L900 -10L19.3 0Z" fill="#f88317" stroke="#f88317"></path><path d="M0 385L0 481L137.3 410Z" fill="#f87d13" stroke="#f87d13"></path><path d="M61.6 560L58.3 600L97.3 607Z" fill="#f88317" stroke="#f88317"></path><path d="M-4.7 363L0 481L0 385Z" fill="#fcaf3c" stroke="#fcaf3c"></path><path d="M900 -10L0 0L19.3 0Z" fill="#fb9f2d" stroke="#fb9f2d"></path><path d="M19.3 0L0 0L0 55Z" fill="#fba432" stroke="#fba432"></path><path d="M0 55L0 0L-4.7 363Z" fill="#f88317" stroke="#f88317"></path><path d="M883.7 600L900 546L791.7 551Z" fill="#f9891b" stroke="#f9891b"></path><path d="M0 600L58.3 600L61.6 560Z" fill="#f98e20" stroke="#f98e20"></path><path d="M743.4 600L883.7 600L779.7 556Z" fill="#fba432" stroke="#fba432"></path><path d="M0 614L883.7 600L743.4 600Z" fill="#fb9f2d" stroke="#fb9f2d"></path><path d="M0 614L900 600L883.7 600Z" fill="#fa9a29" stroke="#fa9a29"></path><path d="M883.7 600L900 600L900 546Z" fill="#fa9a29" stroke="#fa9a29"></path><path d="M58.3 600L0 614L97.3 607Z" fill="#fcaf3c" stroke="#fcaf3c"></path><path d="M0 481L0 600L61.6 560Z" fill="#f98e20" stroke="#f98e20"></path><path d="M-4.7 363L0 600L0 481Z" fill="#f87d13" stroke="#f87d13"></path><path d="M-4.7 363L0 614L0 600Z" fill="#f87d13" stroke="#f87d13"></path><path d="M0 600L0 614L58.3 600Z" fill="#fcaa37" stroke="#fcaa37"></path><path d="M97.3 607L0 614L368.4 600Z" fill="#f7770f" stroke="#f7770f"></path></g></svg>