<svg id="visual" viewBox="0 0 900 600" width="900" height="600" xmlns="http://www.w3.org/2000/svg" xmlns:xlink="http://www.w3.org/1999/xlink" version="1.1"><g stroke-width="1" stroke-linejoin="bevel"><path d="M414 331L302 418L436 402Z" fill="#eb7459" stroke="#eb7459"></path><path d="M302 418L369 469L436 402Z" fill="#4b355c" stroke="#4b355c"></path><path d="M414 331L332 287L302 418Z" fill="#fcaf3c" stroke="#fcaf3c"></path><path d="M369 469L484 439L436 402Z" fill="#4b355c" stroke="#4b355c"></path><path d="M436 402L535 278L414 331Z" fill="#d55f65" stroke="#d55f65"></path><path d="M302 418L339 518L369 469Z" fill="#4b355c" stroke="#4b355c"></path><path d="M481 600L535 533L484 439Z" fill="#4b355c" stroke="#4b355c"></path><path d="M535 278L389 228L414 331Z" fill="#eb7459" stroke="#eb7459"></path><path d="M414 331L389 228L332 287Z" fill="#6f3d69" stroke="#6f3d69"></path><path d="M165 301L184 405L302 418Z" fill="#00101c" stroke="#00101c"></path><path d="M302 418L180 475L339 518Z" fill="#f9904a" stroke="#f9904a"></path><path d="M165 301L302 418L332 287Z" fill="#121e33" stroke="#121e33"></path><path d="M389 228L339 199L332 287Z" fill="#b74f6c" stroke="#b74f6c"></path><path d="M574 322L535 278L436 402Z" fill="#121e33" stroke="#121e33"></path><path d="M389 228L439 76L339 199Z" fill="#fcaf3c" stroke="#fcaf3c"></path><path d="M184 405L180 475L302 418Z" fill="#2b2a49" stroke="#2b2a49"></path><path d="M304 600L370 600L339 518Z" fill="#2b2a49" stroke="#2b2a49"></path><path d="M339 518L370 600L369 469Z" fill="#f9904a" stroke="#f9904a"></path><path d="M484 439L574 322L436 402Z" fill="#6f3d69" stroke="#6f3d69"></path><path d="M635 374L574 322L484 439Z" fill="#fcaf3c" stroke="#fcaf3c"></path><path d="M186 218L165 301L332 287Z" fill="#d55f65" stroke="#d55f65"></path><path d="M184 405L66 411L180 475Z" fill="#2b2a49" stroke="#2b2a49"></path><path d="M228 600L304 600L339 518Z" fill="#00101c" stroke="#00101c"></path><path d="M481 600L484 439L369 469Z" fill="#00101c" stroke="#00101c"></path><path d="M370 600L481 600L369 469Z" fill="#4b355c" stroke="#4b355c"></path><path d="M339 199L186 218L332 287Z" fill="#2b2a49" stroke="#2b2a49"></path><path d="M136 214L132 294L165 301Z" fill="#d55f65" stroke="#d55f65"></path><path d="M165 301L132 294L184 405Z" fill="#d55f65" stroke="#d55f65"></path><path d="M638 226L495 167L535 278Z" fill="#2b2a49" stroke="#2b2a49"></path><path d="M535 278L495 167L389 228Z" fill="#d55f65" stroke="#d55f65"></path><path d="M339 199L274 116L186 218Z" fill="#94456e" stroke="#94456e"></path><path d="M581 600L585 513L535 533Z" fill="#4b355c" stroke="#4b355c"></path><path d="M535 533L585 513L484 439Z" fill="#121e33" stroke="#121e33"></path><path d="M180 475L228 600L339 518Z" fill="#94456e" stroke="#94456e"></path><path d="M585 513L635 374L484 439Z" fill="#eb7459" stroke="#eb7459"></path><path d="M574 322L638 226L535 278Z" fill="#4b355c" stroke="#4b355c"></path><path d="M439 76L274 116L339 199Z" fill="#eb7459" stroke="#eb7459"></path><path d="M186 218L136 214L165 301Z" fill="#2b2a49" stroke="#2b2a49"></path><path d="M178 82L136 214L186 218Z" fill="#d55f65" stroke="#d55f65"></path><path d="M584 111L487 120L495 167Z" fill="#4b355c" stroke="#4b355c"></path><path d="M495 167L487 120L389 228Z" fill="#fcaf3c" stroke="#fcaf3c"></path><path d="M132 294L66 411L184 405Z" fill="#f9904a" stroke="#f9904a"></path><path d="M180 475L94 600L228 600Z" fill="#eb7459" stroke="#eb7459"></path><path d="M0 364L66 411L132 294Z" fill="#4b355c" stroke="#4b355c"></path><path d="M481 600L581 600L535 533Z" fill="#fcaf3c" stroke="#fcaf3c"></path><path d="M683 488L679 366L635 374Z" fill="#f9904a" stroke="#f9904a"></path><path d="M683 488L635 374L585 513Z" fill="#d55f65" stroke="#d55f65"></path><path d="M635 374L692 272L574 322Z" fill="#f9904a" stroke="#f9904a"></path><path d="M692 272L638 226L574 322Z" fill="#f9904a" stroke="#f9904a"></path><path d="M436 0L439 76L523 0Z" fill="#2b2a49" stroke="#2b2a49"></path><path d="M487 120L439 76L389 228Z" fill="#2b2a49" stroke="#2b2a49"></path><path d="M675 600L683 488L585 513Z" fill="#eb7459" stroke="#eb7459"></path><path d="M66 411L61 525L180 475Z" fill="#00101c" stroke="#00101c"></path><path d="M679 366L692 272L635 374Z" fill="#4b355c" stroke="#4b355c"></path><path d="M766 390L692 272L679 366Z" fill="#94456e" stroke="#94456e"></path><path d="M61 525L94 600L180 475Z" fill="#00101c" stroke="#00101c"></path><path d="M705 210L584 111L638 226Z" fill="#94456e" stroke="#94456e"></path><path d="M638 226L584 111L495 167Z" fill="#00101c" stroke="#00101c"></path><path d="M209 0L178 82L274 116Z" fill="#eb7459" stroke="#eb7459"></path><path d="M274 116L178 82L186 218Z" fill="#2b2a49" stroke="#2b2a49"></path><path d="M0 261L0 364L132 294Z" fill="#d55f65" stroke="#d55f65"></path><path d="M0 261L132 294L136 214Z" fill="#d55f65" stroke="#d55f65"></path><path d="M66 411L0 468L61 525Z" fill="#b74f6c" stroke="#b74f6c"></path><path d="M0 364L0 468L66 411Z" fill="#2b2a49" stroke="#2b2a49"></path><path d="M61 525L0 600L94 600Z" fill="#fcaf3c" stroke="#fcaf3c"></path><path d="M581 600L675 600L585 513Z" fill="#00101c" stroke="#00101c"></path><path d="M831 297L705 210L692 272Z" fill="#121e33" stroke="#121e33"></path><path d="M692 272L705 210L638 226Z" fill="#d55f65" stroke="#d55f65"></path><path d="M766 390L679 366L683 488Z" fill="#6f3d69" stroke="#6f3d69"></path><path d="M209 0L134 82L178 82Z" fill="#94456e" stroke="#94456e"></path><path d="M178 82L134 82L136 214Z" fill="#f9904a" stroke="#f9904a"></path><path d="M0 170L0 261L136 214Z" fill="#2b2a49" stroke="#2b2a49"></path><path d="M523 0L439 76L487 120Z" fill="#121e33" stroke="#121e33"></path><path d="M439 76L287 0L274 116Z" fill="#d55f65" stroke="#d55f65"></path><path d="M436 0L287 0L439 76Z" fill="#121e33" stroke="#121e33"></path><path d="M796 501L766 390L683 488Z" fill="#4b355c" stroke="#4b355c"></path><path d="M287 0L209 0L274 116Z" fill="#b74f6c" stroke="#b74f6c"></path><path d="M584 111L523 0L487 120Z" fill="#6f3d69" stroke="#6f3d69"></path><path d="M623 0L523 0L584 111Z" fill="#121e33" stroke="#121e33"></path><path d="M134 82L0 170L136 214Z" fill="#fcaf3c" stroke="#fcaf3c"></path><path d="M0 87L0 170L134 82Z" fill="#00101c" stroke="#00101c"></path><path d="M0 468L0 600L61 525Z" fill="#b74f6c" stroke="#b74f6c"></path><path d="M675 600L796 501L683 488Z" fill="#d55f65" stroke="#d55f65"></path><path d="M733 63L623 0L584 111Z" fill="#fcaf3c" stroke="#fcaf3c"></path><path d="M60 0L0 87L134 82Z" fill="#00101c" stroke="#00101c"></path><path d="M900 433L831 297L766 390Z" fill="#4b355c" stroke="#4b355c"></path><path d="M766 390L831 297L692 272Z" fill="#f9904a" stroke="#f9904a"></path><path d="M705 210L733 63L584 111Z" fill="#f9904a" stroke="#f9904a"></path><path d="M835 170L733 63L705 210Z" fill="#d55f65" stroke="#d55f65"></path><path d="M209 0L60 0L134 82Z" fill="#d55f65" stroke="#d55f65"></path><path d="M733 63L690 0L623 0Z" fill="#121e33" stroke="#121e33"></path><path d="M675 600L822 600L796 501Z" fill="#6f3d69" stroke="#6f3d69"></path><path d="M796 501L900 433L766 390Z" fill="#fcaf3c" stroke="#fcaf3c"></path><path d="M831 297L835 170L705 210Z" fill="#f9904a" stroke="#f9904a"></path><path d="M733 63L765 0L690 0Z" fill="#d55f65" stroke="#d55f65"></path><path d="M900 238L835 170L831 297Z" fill="#4b355c" stroke="#4b355c"></path><path d="M60 0L0 0L0 87Z" fill="#eb7459" stroke="#eb7459"></path><path d="M900 535L900 433L796 501Z" fill="#fcaf3c" stroke="#fcaf3c"></path><path d="M900 433L900 303L831 297Z" fill="#eb7459" stroke="#eb7459"></path><path d="M900 106L814 65L835 170Z" fill="#eb7459" stroke="#eb7459"></path><path d="M835 170L814 65L733 63Z" fill="#d55f65" stroke="#d55f65"></path><path d="M900 303L900 238L831 297Z" fill="#eb7459" stroke="#eb7459"></path><path d="M814 65L765 0L733 63Z" fill="#eb7459" stroke="#eb7459"></path><path d="M822 600L900 535L796 501Z" fill="#eb7459" stroke="#eb7459"></path><path d="M822 600L900 600L900 535Z" fill="#00101c" stroke="#00101c"></path><path d="M900 238L900 106L835 170Z" fill="#00101c" stroke="#00101c"></path><path d="M814 65L900 0L765 0Z" fill="#94456e" stroke="#94456e"></path><path d="M900 106L900 0L814 65Z" fill="#fcaf3c" stroke="#fcaf3c"></path></g></svg>